# xmcd
#
# Track frame offsets: 
#        150
#        17261
#        33449
#        52334
#        71278
#        91588
#        103794
#        119162
#        137007
#        155792
#        175955
#        190829
#        209969
#        221048
#        235041
#        250094
#
# Disc length: 3528 seconds
#
# Revision: 0
# Processed by: cddbd v1.5.2PL0 Copyright (c) Steve Scherf et al.
# Submitted via: ExactAudioCopy v1.3
#
DISCID=ea0dc610
DTITLE=Rodney Crowell - Ballad Of Fast Eddie
DYEAR=1993
DGENRE=Country
TTITLE0=Ballad Of Fast Eddie
TTITLE1=She Loves The Jerk
TTITLE2=When The Blue Hour Comes
TTITLE3=Oh , King Richard
TTITLE4=Looking Foir You
TTITLE5=The Best I Can
TTITLE6=If Looks Could Kill
TTITLE7=Soul Searchin'
TTITLE8=Many A Long and Lonesome Highway
TTITLE9=The Faith Is  Mine
TTITLE10=Don't Let Your Feet Slow You Down
TTITLE11=Now That We're Alone
TTITLE12=Above And Beyond
TTITLE13=Brand New Rag
TTITLE14=It's Such A Small World
TTITLE15=She's Crazy For Leavin'
EXTD=
EXTT0=
EXTT1=
EXTT2=
EXTT3=
EXTT4=
EXTT5=
EXTT6=
EXTT7=
EXTT8=
EXTT9=
EXTT10=
EXTT11=
EXTT12=
EXTT13=
EXTT14=
EXTT15=
PLAYORDER=
